{"title":"A Better Life [2011] BRRip XviD - CODY","uid":7819250,"size":948253498,"categoryP":"video","categoryS":"movies","magnet":"?xt=urn:btih:38263cd2e23c3b2ab720bedc294284e60c4b026e&amp;dn=A+Better+Life+%5B2011%5D+BRRip+XviD+-+CODY&amp;tr=udp%3A%2F%2Ftracker.openbittorrent.com%3A80&amp;tr=udp%3A%2F%2Fopen.demonii.com%3A1337&amp;tr=udp%3A%2F%2Ftracker.coppersurfer.tk%3A6969&amp;tr=udp%3A%2F%2Fexodus.desync.com%3A6969","seeders":1,"leechers":0,"uploader":"CODYBOSS1969","files":5,"time":1352754271,"description":"General\nComplete name                            : A Better Life [2011] BRRip XviD - CODY.avi\nFormat                                   : AVI\nFormat/Info                              : Audio Video Interleave\nFile size                                : 904 MiB\nDuration                                 : 1h 37mn\nOverall bit rate                         : 1 296 Kbps\nWriting application                      : VirtualDubMod 1.5.10.3 | www.virtualdub-fr.org || (build 2550/release)\nWriting library                          : VirtualDubMod build 2550/release\n\nVideo\nID                                       : 0\nFormat                                   : MPEG-4 Visual\nFormat profile                           : Advanced Simple@L5\nFormat settings, BVOP                    : 4\nFormat settings, QPel                    : No\nFormat settings, GMC                     : No warppoints\nFormat settings, Matrix                  : Default (H.263)\nCodec ID                                 : XVID\nCodec ID/Hint                            : XviD\nDuration                                 : 1h 37mn\nBit rate                                 : 1 159 Kbps\nWidth                                    : 720 pixels\nHeight                                   : 408 pixels\nDisplay aspect ratio                     : 16:9\nFrame rate                               : 23.976 fps\nColor space                              : YUV\nChroma subsampling                       : 4:2:0\nBit depth                                : 8 bits\nScan type                                : Progressive\nCompression mode                         : Lossy\nBits/(Pixel*Frame)                       : 0.165\nStream size                              : 808 MiB (89%)\nWriting library                          : XviD 65\n\nAudio\nID                                       : 1\nFormat                                   : MPEG Audio\nFormat version                           : Version 1\nFormat profile                           : Layer 3\nCodec ID                                 : 55\nCodec ID/Hint                            : MP3\nDuration                                 : 1h 37mn\nBit rate mode                            : Constant\nBit rate                                 : 128 Kbps\nChannel(s)                               : 2 channels\nSampling rate                            : 48.0 KHz\nCompression mode                         : Lossy\nStream size                              : 89.3 MiB (10%)\nAlignment                                : Aligned on interleaves\nInterleave, duration                     : 42 ms (1.00 video frame)\nInterleave, preload duration             : 504 ms\nWriting library                          : LAME3.99r\nEncoding settings                        : -m s -V 4 -q 2 -lowpass 17 -b 128\n\n\nAudio language                           : English, Spanish\n\nIMDB link                                 &lt;a href=&quot; http://www.imdb.com/title/tt1554091/&quot; rel=&quot;nofollow&quot; target=&quot;_NEW&quot;&gt; http://www.imdb.com/title/tt1554091/&lt;/a&gt;\n\nSubtitles included                       : Romanian\n\nPlease seed at least 1,5:1. This way this torrent has a chance to survive!\n\nThanks. Enjoy !!!\t\t\t\t\t\t\t\n","torrent":{"xt":"urn:btih:38263cd2e23c3b2ab720bedc294284e60c4b026e","amp;dn":"A+Better+Life+%5B2011%5D+BRRip+XviD+-+CODY","amp;tr":["udp%3A%2F%2Ftracker.openbittorrent.com%3A80","udp%3A%2F%2Fopen.demonii.com%3A1337","udp%3A%2F%2Ftracker.coppersurfer.tk%3A6969","udp%3A%2F%2Fexodus.desync.com%3A6969"],"infoHash":"38263cd2e23c3b2ab720bedc294284e60c4b026e","infoHashBuffer":{"type":"Buffer","data":[56,38,60,210,226,60,59,42,183,32,190,220,41,66,132,230,12,75,2,110]},"announce":[],"urlList":[]}}